# xmcd
#
# Track frame offsets: 
#        150
#        12378
#        23118
#        36365
#        48888
#        61236
#        74966
#        90780
#        104467
#        114050
#        135213
#        146520
#        159963
#        173271
#        186768
#        200143
#        219518
#        232354
#        243154
#        259005
#        269223
#        283447
#        295902
#        308478
#        328342
#        341120
#
# Disc length: 4748 seconds
#
# Revision: 5
# Processed by: cddbd v1.5.2PL0 Copyright (c) Steve Scherf et al.
# Submitted via: ExactAudioCopy v1.0b1
#
DISCID=87128a1a
DTITLE=Jr. Walker and The All Stars - Shotgun and Soul Session
DYEAR=2003
DGENRE=Soul
TTITLE0=Cleo's Mood
TTITLE1=Do The Boomerang
TTITLE2=Shotgun
TTITLE3=(I'm A) Roadrunner
TTITLE4=Shake And Fingerpop
TTITLE5=Shoot Your Shot
TTITLE6=Tune Up
TTITLE7=Hot Cha
TTITLE8=Monkey Jump
TTITLE9=Tally Ho
TTITLE10=Cleo's Back
TTITLE11=Ain't That The Truth
TTITLE12=Good Rockin'
TTITLE13=Hewbie Steps Out
TTITLE14=Shake Everything
TTITLE15=Everybody Get Together
TTITLE16=Mark Anthony (Speaks)
TTITLE17=Us
TTITLE18=Moonlight In Vermont
TTITLE19=Decidedly
TTITLE20=Eight Hour Drag
TTITLE21=Brainwasher
TTITLE22=Three Four Three
TTITLE23=Satan's Blues
TTITLE24=Willie's Blues
TTITLE25=Break It Up
EXTD=YEAR: 2003
EXTT0=
EXTT1=
EXTT2=
EXTT3=
EXTT4=
EXTT5=
EXTT6=
EXTT7=
EXTT8=
EXTT9=
EXTT10=
EXTT11=
EXTT12=
EXTT13=
EXTT14=
EXTT15=
EXTT16=
EXTT17=
EXTT18=
EXTT19=
EXTT20=
EXTT21=
EXTT22=
EXTT23=
EXTT24=
EXTT25=
PLAYORDER=
